<mxfile host="Electron" agent="Mozilla/5.0 (Macintosh; Intel Mac OS X 10_15_7) AppleWebKit/537.36 (KHTML, like Gecko) draw.io/26.2.2 Chrome/134.0.6998.178 Electron/35.1.2 Safari/537.36" version="26.2.2">
  <diagram name="Страница — 1" id="OhyMpIxeDv_2BK04oLk6">
    <mxGraphModel dx="3343" dy="2027" grid="1" gridSize="10" guides="1" tooltips="1" connect="1" arrows="1" fold="1" page="1" pageScale="1" pageWidth="827" pageHeight="1169" math="0" shadow="0">
      <root>
        <mxCell id="0" />
        <mxCell id="1" parent="0" />
        <mxCell id="pcgXaRbTW4dxSOvkDOKM-1" value="WebSPA" style="swimlane;whiteSpace=wrap;html=1;" vertex="1" parent="1">
          <mxGeometry x="20" y="120" width="740" height="560" as="geometry" />
        </mxCell>
        <mxCell id="pcgXaRbTW4dxSOvkDOKM-2" value="Logo/Home" style="rounded=1;whiteSpace=wrap;html=1;" vertex="1" parent="pcgXaRbTW4dxSOvkDOKM-1">
          <mxGeometry x="20" y="40" width="100" height="30" as="geometry" />
        </mxCell>
        <mxCell id="pcgXaRbTW4dxSOvkDOKM-4" value="TaskManager" style="rounded=1;whiteSpace=wrap;html=1;" vertex="1" parent="pcgXaRbTW4dxSOvkDOKM-1">
          <mxGeometry x="380" y="40" width="100" height="30" as="geometry" />
        </mxCell>
        <mxCell id="pcgXaRbTW4dxSOvkDOKM-3" value="Rooms" style="rounded=1;whiteSpace=wrap;html=1;" vertex="1" parent="pcgXaRbTW4dxSOvkDOKM-1">
          <mxGeometry x="260" y="40" width="100" height="30" as="geometry" />
        </mxCell>
        <mxCell id="pcgXaRbTW4dxSOvkDOKM-5" value="Robots" style="rounded=1;whiteSpace=wrap;html=1;" vertex="1" parent="pcgXaRbTW4dxSOvkDOKM-1">
          <mxGeometry x="140" y="40" width="100" height="30" as="geometry" />
        </mxCell>
        <mxCell id="pcgXaRbTW4dxSOvkDOKM-6" value="Services" style="rounded=1;whiteSpace=wrap;html=1;" vertex="1" parent="pcgXaRbTW4dxSOvkDOKM-1">
          <mxGeometry x="500" y="40" width="100" height="30" as="geometry" />
        </mxCell>
        <mxCell id="pcgXaRbTW4dxSOvkDOKM-7" value="History" style="rounded=1;whiteSpace=wrap;html=1;" vertex="1" parent="pcgXaRbTW4dxSOvkDOKM-1">
          <mxGeometry x="620" y="40" width="100" height="30" as="geometry" />
        </mxCell>
        <mxCell id="pcgXaRbTW4dxSOvkDOKM-8" value="" style="swimlane;startSize=0;" vertex="1" parent="pcgXaRbTW4dxSOvkDOKM-1">
          <mxGeometry x="20" y="90" width="700" height="450" as="geometry" />
        </mxCell>
        <mxCell id="pcgXaRbTW4dxSOvkDOKM-9" value="HISTORY" style="whiteSpace=wrap;html=1;" vertex="1" parent="pcgXaRbTW4dxSOvkDOKM-8">
          <mxGeometry x="20" y="340" width="660" height="90" as="geometry" />
        </mxCell>
        <mxCell id="pcgXaRbTW4dxSOvkDOKM-10" value="ROBOTS" style="whiteSpace=wrap;html=1;" vertex="1" parent="pcgXaRbTW4dxSOvkDOKM-8">
          <mxGeometry x="20" y="20" width="320" height="140" as="geometry" />
        </mxCell>
        <mxCell id="pcgXaRbTW4dxSOvkDOKM-11" value="ROOMS" style="whiteSpace=wrap;html=1;" vertex="1" parent="pcgXaRbTW4dxSOvkDOKM-8">
          <mxGeometry x="360" y="20" width="320" height="140" as="geometry" />
        </mxCell>
        <mxCell id="pcgXaRbTW4dxSOvkDOKM-12" value="SERVICES" style="whiteSpace=wrap;html=1;" vertex="1" parent="pcgXaRbTW4dxSOvkDOKM-8">
          <mxGeometry x="360" y="180" width="320" height="140" as="geometry" />
        </mxCell>
        <mxCell id="pcgXaRbTW4dxSOvkDOKM-13" value="TASKMANAGER" style="whiteSpace=wrap;html=1;" vertex="1" parent="pcgXaRbTW4dxSOvkDOKM-8">
          <mxGeometry x="20" y="180" width="320" height="140" as="geometry" />
        </mxCell>
        <mxCell id="pcgXaRbTW4dxSOvkDOKM-14" value="" style="swimlane;startSize=0;" vertex="1" parent="1">
          <mxGeometry x="-740" y="210" width="700" height="450" as="geometry" />
        </mxCell>
        <mxCell id="pcgXaRbTW4dxSOvkDOKM-45" value="Robots" style="text;html=1;align=center;verticalAlign=middle;whiteSpace=wrap;rounded=0;fontSize=20;fontStyle=1" vertex="1" parent="pcgXaRbTW4dxSOvkDOKM-14">
          <mxGeometry x="310" y="10" width="80" height="30" as="geometry" />
        </mxCell>
        <mxCell id="pcgXaRbTW4dxSOvkDOKM-48" value="Robot" style="swimlane;fontStyle=0;childLayout=stackLayout;horizontal=1;startSize=30;horizontalStack=0;resizeParent=1;resizeParentMax=0;resizeLast=0;collapsible=1;marginBottom=0;whiteSpace=wrap;html=1;" vertex="1" parent="pcgXaRbTW4dxSOvkDOKM-14">
          <mxGeometry x="30" y="60" width="140" height="90" as="geometry" />
        </mxCell>
        <mxCell id="pcgXaRbTW4dxSOvkDOKM-49" value="Model" style="text;strokeColor=none;fillColor=none;align=left;verticalAlign=middle;spacingLeft=4;spacingRight=4;overflow=hidden;points=[[0,0.5],[1,0.5]];portConstraint=eastwest;rotatable=0;whiteSpace=wrap;html=1;" vertex="1" parent="pcgXaRbTW4dxSOvkDOKM-48">
          <mxGeometry y="30" width="140" height="30" as="geometry" />
        </mxCell>
        <mxCell id="pcgXaRbTW4dxSOvkDOKM-50" value="AtAdded" style="text;strokeColor=none;fillColor=none;align=left;verticalAlign=middle;spacingLeft=4;spacingRight=4;overflow=hidden;points=[[0,0.5],[1,0.5]];portConstraint=eastwest;rotatable=0;whiteSpace=wrap;html=1;" vertex="1" parent="pcgXaRbTW4dxSOvkDOKM-48">
          <mxGeometry y="60" width="140" height="30" as="geometry" />
        </mxCell>
        <mxCell id="pcgXaRbTW4dxSOvkDOKM-53" value="Add New Robot" style="rounded=1;whiteSpace=wrap;html=1;" vertex="1" parent="pcgXaRbTW4dxSOvkDOKM-14">
          <mxGeometry x="30" y="180" width="140" height="70" as="geometry" />
        </mxCell>
        <mxCell id="pcgXaRbTW4dxSOvkDOKM-26" value="" style="swimlane;startSize=0;" vertex="1" parent="1">
          <mxGeometry x="40" y="760" width="700" height="450" as="geometry" />
        </mxCell>
        <mxCell id="pcgXaRbTW4dxSOvkDOKM-85" value="History" style="text;html=1;align=center;verticalAlign=middle;whiteSpace=wrap;rounded=0;fontSize=20;fontStyle=1" vertex="1" parent="pcgXaRbTW4dxSOvkDOKM-26">
          <mxGeometry x="310" y="20" width="80" height="30" as="geometry" />
        </mxCell>
        <mxCell id="pcgXaRbTW4dxSOvkDOKM-86" value="Today" style="swimlane;fontStyle=0;childLayout=stackLayout;horizontal=1;startSize=30;horizontalStack=0;resizeParent=1;resizeParentMax=0;resizeLast=0;collapsible=1;marginBottom=0;whiteSpace=wrap;html=1;" vertex="1" parent="pcgXaRbTW4dxSOvkDOKM-26">
          <mxGeometry x="30" y="60" width="640" height="120" as="geometry" />
        </mxCell>
        <mxCell id="pcgXaRbTW4dxSOvkDOKM-87" value="2025-04-09 10:00 Robot 1 is charging" style="text;strokeColor=none;fillColor=none;align=left;verticalAlign=middle;spacingLeft=4;spacingRight=4;overflow=hidden;points=[[0,0.5],[1,0.5]];portConstraint=eastwest;rotatable=0;whiteSpace=wrap;html=1;" vertex="1" parent="pcgXaRbTW4dxSOvkDOKM-86">
          <mxGeometry y="30" width="640" height="30" as="geometry" />
        </mxCell>
        <mxCell id="pcgXaRbTW4dxSOvkDOKM-88" value="2025-04-09 09:55 Robot 1 is doing some thing" style="text;strokeColor=none;fillColor=none;align=left;verticalAlign=middle;spacingLeft=4;spacingRight=4;overflow=hidden;points=[[0,0.5],[1,0.5]];portConstraint=eastwest;rotatable=0;whiteSpace=wrap;html=1;" vertex="1" parent="pcgXaRbTW4dxSOvkDOKM-86">
          <mxGeometry y="60" width="640" height="30" as="geometry" />
        </mxCell>
        <mxCell id="pcgXaRbTW4dxSOvkDOKM-89" value="2025-04-09 09:40 Robot 1 is starting operation 1" style="text;strokeColor=none;fillColor=none;align=left;verticalAlign=middle;spacingLeft=4;spacingRight=4;overflow=hidden;points=[[0,0.5],[1,0.5]];portConstraint=eastwest;rotatable=0;whiteSpace=wrap;html=1;" vertex="1" parent="pcgXaRbTW4dxSOvkDOKM-86">
          <mxGeometry y="90" width="640" height="30" as="geometry" />
        </mxCell>
        <mxCell id="pcgXaRbTW4dxSOvkDOKM-54" value="" style="swimlane;startSize=0;" vertex="1" parent="1">
          <mxGeometry x="-740" y="760" width="700" height="450" as="geometry" />
        </mxCell>
        <mxCell id="pcgXaRbTW4dxSOvkDOKM-55" value="Rooms" style="text;html=1;align=center;verticalAlign=middle;whiteSpace=wrap;rounded=0;fontSize=20;fontStyle=1" vertex="1" parent="pcgXaRbTW4dxSOvkDOKM-54">
          <mxGeometry x="310" y="10" width="80" height="30" as="geometry" />
        </mxCell>
        <mxCell id="pcgXaRbTW4dxSOvkDOKM-56" value="Room 1" style="swimlane;fontStyle=0;childLayout=stackLayout;horizontal=1;startSize=30;horizontalStack=0;resizeParent=1;resizeParentMax=0;resizeLast=0;collapsible=1;marginBottom=0;whiteSpace=wrap;html=1;" vertex="1" parent="pcgXaRbTW4dxSOvkDOKM-54">
          <mxGeometry x="30" y="60" width="140" height="90" as="geometry" />
        </mxCell>
        <mxCell id="pcgXaRbTW4dxSOvkDOKM-57" value="Position" style="text;strokeColor=none;fillColor=none;align=left;verticalAlign=middle;spacingLeft=4;spacingRight=4;overflow=hidden;points=[[0,0.5],[1,0.5]];portConstraint=eastwest;rotatable=0;whiteSpace=wrap;html=1;" vertex="1" parent="pcgXaRbTW4dxSOvkDOKM-56">
          <mxGeometry y="30" width="140" height="30" as="geometry" />
        </mxCell>
        <mxCell id="pcgXaRbTW4dxSOvkDOKM-58" value="Operation" style="text;strokeColor=none;fillColor=none;align=left;verticalAlign=middle;spacingLeft=4;spacingRight=4;overflow=hidden;points=[[0,0.5],[1,0.5]];portConstraint=eastwest;rotatable=0;whiteSpace=wrap;html=1;" vertex="1" parent="pcgXaRbTW4dxSOvkDOKM-56">
          <mxGeometry y="60" width="140" height="30" as="geometry" />
        </mxCell>
        <mxCell id="pcgXaRbTW4dxSOvkDOKM-59" value="Add New Room" style="rounded=1;whiteSpace=wrap;html=1;" vertex="1" parent="pcgXaRbTW4dxSOvkDOKM-54">
          <mxGeometry x="30" y="180" width="140" height="70" as="geometry" />
        </mxCell>
        <mxCell id="pcgXaRbTW4dxSOvkDOKM-60" value="" style="swimlane;startSize=0;" vertex="1" parent="1">
          <mxGeometry x="810" y="210" width="700" height="450" as="geometry" />
        </mxCell>
        <mxCell id="pcgXaRbTW4dxSOvkDOKM-61" value="Task Manager" style="text;html=1;align=center;verticalAlign=middle;whiteSpace=wrap;rounded=0;fontSize=20;fontStyle=1" vertex="1" parent="pcgXaRbTW4dxSOvkDOKM-60">
          <mxGeometry x="280" y="10" width="140" height="30" as="geometry" />
        </mxCell>
        <mxCell id="pcgXaRbTW4dxSOvkDOKM-62" value="Task 1" style="swimlane;fontStyle=0;childLayout=stackLayout;horizontal=1;startSize=30;horizontalStack=0;resizeParent=1;resizeParentMax=0;resizeLast=0;collapsible=1;marginBottom=0;whiteSpace=wrap;html=1;" vertex="1" parent="pcgXaRbTW4dxSOvkDOKM-60">
          <mxGeometry x="30" y="60" width="140" height="120" as="geometry" />
        </mxCell>
        <mxCell id="pcgXaRbTW4dxSOvkDOKM-63" value="Robot: Robot 1" style="text;strokeColor=none;fillColor=none;align=left;verticalAlign=middle;spacingLeft=4;spacingRight=4;overflow=hidden;points=[[0,0.5],[1,0.5]];portConstraint=eastwest;rotatable=0;whiteSpace=wrap;html=1;" vertex="1" parent="pcgXaRbTW4dxSOvkDOKM-62">
          <mxGeometry y="30" width="140" height="30" as="geometry" />
        </mxCell>
        <mxCell id="pcgXaRbTW4dxSOvkDOKM-64" value="Room: Room 1" style="text;strokeColor=none;fillColor=none;align=left;verticalAlign=middle;spacingLeft=4;spacingRight=4;overflow=hidden;points=[[0,0.5],[1,0.5]];portConstraint=eastwest;rotatable=0;whiteSpace=wrap;html=1;" vertex="1" parent="pcgXaRbTW4dxSOvkDOKM-62">
          <mxGeometry y="60" width="140" height="30" as="geometry" />
        </mxCell>
        <mxCell id="pcgXaRbTW4dxSOvkDOKM-73" value="Operation: some doing" style="text;strokeColor=none;fillColor=none;align=left;verticalAlign=middle;spacingLeft=4;spacingRight=4;overflow=hidden;points=[[0,0.5],[1,0.5]];portConstraint=eastwest;rotatable=0;whiteSpace=wrap;html=1;" vertex="1" parent="pcgXaRbTW4dxSOvkDOKM-62">
          <mxGeometry y="90" width="140" height="30" as="geometry" />
        </mxCell>
        <mxCell id="pcgXaRbTW4dxSOvkDOKM-65" value="Add New Task" style="rounded=1;whiteSpace=wrap;html=1;" vertex="1" parent="pcgXaRbTW4dxSOvkDOKM-60">
          <mxGeometry x="30" y="210" width="140" height="70" as="geometry" />
        </mxCell>
        <mxCell id="pcgXaRbTW4dxSOvkDOKM-66" value="" style="swimlane;startSize=0;" vertex="1" parent="1">
          <mxGeometry x="810" y="760" width="700" height="450" as="geometry" />
        </mxCell>
        <mxCell id="pcgXaRbTW4dxSOvkDOKM-67" value="Services" style="text;html=1;align=center;verticalAlign=middle;whiteSpace=wrap;rounded=0;fontSize=20;fontStyle=1" vertex="1" parent="pcgXaRbTW4dxSOvkDOKM-66">
          <mxGeometry x="305" y="10" width="90" height="30" as="geometry" />
        </mxCell>
        <mxCell id="pcgXaRbTW4dxSOvkDOKM-74" value="Version OS: ######" style="text;html=1;align=center;verticalAlign=middle;whiteSpace=wrap;rounded=0;" vertex="1" parent="pcgXaRbTW4dxSOvkDOKM-66">
          <mxGeometry x="30" y="50" width="130" height="30" as="geometry" />
        </mxCell>
        <mxCell id="pcgXaRbTW4dxSOvkDOKM-75" value="Check Update OS" style="rounded=1;whiteSpace=wrap;html=1;" vertex="1" parent="pcgXaRbTW4dxSOvkDOKM-66">
          <mxGeometry x="170" y="50" width="110" height="30" as="geometry" />
        </mxCell>
        <mxCell id="pcgXaRbTW4dxSOvkDOKM-80" value="Update OS" style="rounded=1;whiteSpace=wrap;html=1;" vertex="1" parent="pcgXaRbTW4dxSOvkDOKM-66">
          <mxGeometry x="305" y="50" width="110" height="30" as="geometry" />
        </mxCell>
        <mxCell id="pcgXaRbTW4dxSOvkDOKM-81" value="Robot 1" style="swimlane;fontStyle=0;childLayout=stackLayout;horizontal=1;startSize=30;horizontalStack=0;resizeParent=1;resizeParentMax=0;resizeLast=0;collapsible=1;marginBottom=0;whiteSpace=wrap;html=1;" vertex="1" parent="pcgXaRbTW4dxSOvkDOKM-66">
          <mxGeometry x="30" y="110" width="140" height="120" as="geometry" />
        </mxCell>
        <mxCell id="pcgXaRbTW4dxSOvkDOKM-82" value="is Status: working" style="text;strokeColor=none;fillColor=none;align=left;verticalAlign=middle;spacingLeft=4;spacingRight=4;overflow=hidden;points=[[0,0.5],[1,0.5]];portConstraint=eastwest;rotatable=0;whiteSpace=wrap;html=1;" vertex="1" parent="pcgXaRbTW4dxSOvkDOKM-81">
          <mxGeometry y="30" width="140" height="30" as="geometry" />
        </mxCell>
        <mxCell id="pcgXaRbTW4dxSOvkDOKM-83" value="is Full: false" style="text;strokeColor=none;fillColor=none;align=left;verticalAlign=middle;spacingLeft=4;spacingRight=4;overflow=hidden;points=[[0,0.5],[1,0.5]];portConstraint=eastwest;rotatable=0;whiteSpace=wrap;html=1;" vertex="1" parent="pcgXaRbTW4dxSOvkDOKM-81">
          <mxGeometry y="60" width="140" height="30" as="geometry" />
        </mxCell>
        <mxCell id="pcgXaRbTW4dxSOvkDOKM-84" value="Battery Status: 75%" style="text;strokeColor=none;fillColor=none;align=left;verticalAlign=middle;spacingLeft=4;spacingRight=4;overflow=hidden;points=[[0,0.5],[1,0.5]];portConstraint=eastwest;rotatable=0;whiteSpace=wrap;html=1;" vertex="1" parent="pcgXaRbTW4dxSOvkDOKM-81">
          <mxGeometry y="90" width="140" height="30" as="geometry" />
        </mxCell>
      </root>
    </mxGraphModel>
  </diagram>
</mxfile>
